<?xml version="1.0" encoding="UTF-8"?>
<svg version="1.1" xmlns="http://www.w3.org/2000/svg" width="320" height="344">
<path d="M0 0 C3.04670476 1.08868204 5.993858 1.95738457 9.203125 2.453125 C9.203125 3.113125 9.203125 3.773125 9.203125 4.453125 C10.44255859 4.81277344 10.44255859 4.81277344 11.70703125 5.1796875 C15.80275729 6.67153855 19.37827322 8.649734 23.140625 10.828125 C23.81802734 11.21484375 24.49542969 11.6015625 25.19335938 12 C26.54072643 12.76992403 27.88630377 13.5429894 29.22998047 14.31933594 C30.54695835 15.07608492 31.86896762 15.8241434 33.19580078 16.56347656 C36.53478854 18.42874594 39.05488032 20.20503296 41.640625 23.015625 C43.25529347 24.69806472 43.25529347 24.69806472 46.203125 25.453125 C47.8515625 27.125 47.8515625 27.125 49.578125 29.203125 C52.32846716 32.44981341 55.14964716 35.49217679 58.203125 38.453125 C54.38522468 41.92394347 51.14130859 43.12361403 46.203125 44.453125 C45.873125 45.113125 45.543125 45.773125 45.203125 46.453125 C43.2778355 47.51535369 41.31017943 48.50100648 39.328125 49.453125 C38.04859452 50.07761777 36.76999822 50.70402709 35.4921875 51.33203125 C34.45626465 51.84080811 34.45626465 51.84080811 33.39941406 52.35986328 C29.47184637 54.31491532 25.58646647 56.34945144 21.703125 58.390625 C20.89875 58.8127124 20.094375 59.2347998 19.265625 59.66967773 C13.10023324 62.92758347 7.06811936 66.37492958 1.0859375 69.95703125 C-3.66939515 72.42490714 -3.66939515 72.42490714 -6.796875 72.453125 C-9.52839881 71.33017379 -11.97693441 69.81632585 -14.484375 68.265625 C-21.63756298 64.03443759 -28.6536377 60.36918083 -36.796875 58.453125 C-37.77140625 58.2159375 -38.7459375 57.97875 -39.75 57.734375 C-40.83796875 57.4765625 -41.9259375 57.21875 -43.046875 56.953125 C-44.12453125 56.6953125 -45.2021875 56.4375 -46.3125 56.171875 C-71.33106771 51.01109422 -100.30187955 53.96093437 -122.796875 66.453125 C-123.63347656 66.87078125 -124.47007812 67.2884375 -125.33203125 67.71875 C-137.76684496 74.08481496 -148.83894242 83.31041196 -156.33203125 95.15625 C-157.27426635 96.63367464 -158.25894137 98.08529935 -159.29296875 99.5 C-174.93972883 121.12097756 -177.78508573 152.00123919 -173.671875 177.703125 C-168.88859151 204.1643435 -155.75239726 226.92683875 -133.6328125 242.7109375 C-106.96690701 259.77452179 -74.28511589 264.6416623 -43.40454102 258.43457031 C-31.051299 255.61353733 -19.08422246 250.47077464 -8.51171875 243.484375 C-6.796875 242.453125 -6.796875 242.453125 -4.796875 242.453125 C-3.39130196 244.49135512 -2.11148219 246.51089406 -0.859375 248.640625 C-0.51197266 249.21876953 -0.16457031 249.79691406 0.19335938 250.39257812 C1.20313256 252.07553343 2.20326885 253.76425908 3.203125 255.453125 C4.07130859 256.83951172 4.07130859 256.83951172 4.95703125 258.25390625 C6.203125 260.453125 6.203125 260.453125 6.203125 262.453125 C6.863125 262.453125 7.523125 262.453125 8.203125 262.453125 C8.48542969 263.00355469 8.76773437 263.55398438 9.05859375 264.12109375 C14.14714207 273.74606051 19.98875593 282.90987208 25.7644043 292.13232422 C27.26838186 294.55839086 28.74009929 297.00218406 30.203125 299.453125 C7.40788931 316.31789287 -22.98228295 323.90295984 -50.796875 326.453125 C-51.98539063 326.56398438 -53.17390625 326.67484375 -54.3984375 326.7890625 C-62.54096367 327.45707462 -70.63052672 327.64506908 -78.796875 327.453125 C-80.0446875 327.42476563 -81.2925 327.39640625 -82.578125 327.3671875 C-102.78203124 326.65797291 -122.61771225 322.72863041 -141.796875 316.453125 C-142.86856934 316.10942871 -142.86856934 316.10942871 -143.96191406 315.75878906 C-169.54638648 307.4083857 -190.98573457 291.29556516 -209.796875 272.453125 C-210.725 271.56625 -211.653125 270.679375 -212.609375 269.765625 C-214.796875 267.453125 -214.796875 267.453125 -214.796875 265.453125 C-215.456875 265.453125 -216.116875 265.453125 -216.796875 265.453125 C-219.796875 261.99158654 -219.796875 261.99158654 -219.796875 259.453125 C-220.456875 259.453125 -221.116875 259.453125 -221.796875 259.453125 C-224.32494028 255.88060082 -226.48309901 252.07139445 -228.70019531 248.29980469 C-229.71618262 246.58900148 -230.76684779 244.89892149 -231.8203125 243.2109375 C-245.67766884 220.37094702 -252.5254014 192.99444831 -253.796875 166.453125 C-253.83538574 165.6890332 -253.87389648 164.92494141 -253.91357422 164.13769531 C-255.45858308 127.90300999 -245.30715512 93.12972215 -226.421875 62.453125 C-225.99293945 61.751875 -225.56400391 61.050625 -225.12207031 60.328125 C-224.07172636 58.66501055 -222.94138989 57.05289303 -221.796875 55.453125 C-221.136875 55.453125 -220.476875 55.453125 -219.796875 55.453125 C-219.57 54.90914063 -219.343125 54.36515625 -219.109375 53.8046875 C-217.40888039 50.75796799 -215.16942247 48.35496133 -212.796875 45.828125 C-212.30413086 45.30033447 -211.81138672 44.77254395 -211.30371094 44.22875977 C-210.28925089 43.1471137 -209.27199429 42.06808365 -208.25195312 40.99169922 C-206.94957562 39.61458797 -205.66131587 38.22415698 -204.375 36.83203125 C-153.7795556 -16.22527203 -65.84714528 -23.57351606 0 0 Z " fill="#F9F9F9" transform="translate(259.796875,15.546875)"/>
<path d="M0 0 C1.65 0.33 3.3 0.66 5 1 C5.93729803 4.96490204 6.12795654 8.65479171 6.13371277 12.72450256 C6.13597833 13.38748791 6.13824388 14.05047325 6.14057809 14.73354906 C6.14689093 16.9474653 6.14609049 19.16131991 6.14526367 21.37524414 C6.14825676 22.9655312 6.15165964 24.55581753 6.15544128 26.14610291 C6.16426785 30.4599913 6.16661877 34.77385985 6.16725707 39.0877564 C6.16820719 42.68887302 6.17188646 46.28998503 6.17542917 49.89109987 C6.18356777 58.38451493 6.18601385 66.87791938 6.18530273 75.37133789 C6.18470132 84.13677081 6.19526713 92.90214231 6.2110464 101.66755968 C6.22411127 109.19292906 6.22948711 116.71827833 6.22884732 124.24365896 C6.22859213 128.73851681 6.23145548 133.23332002 6.24202538 137.72816658 C6.25168923 141.95281296 6.25179736 146.17735223 6.24450874 150.40200233 C6.24346093 151.95322068 6.24583741 153.50444564 6.2518692 155.05565262 C6.25956415 157.17138895 6.25496125 159.28675301 6.24723816 161.40248108 C6.24778293 162.58694352 6.24832769 163.77140596 6.24888897 164.99176121 C6.00893373 167.89202098 5.51728451 169.55326771 4 172 C3.34 171.34 2.68 170.68 2 170 C1.34 170.33 0.68 170.66 0 171 C-0.2475 169.989375 -0.495 168.97875 -0.75 167.9375 C-1.89660638 163.86621646 -3.79741473 160.59755594 -6 157 C-6.66 157 -7.32 157 -8 157 C-7.67 155.68 -7.34 154.36 -7 153 C-7.66 153 -8.32 153 -9 153 C-10.21875 151.3203125 -10.21875 151.3203125 -11.5 149.125 C-12.89818809 146.74637514 -14.03792084 144.96207916 -16 143 C-16.66666667 141.33333333 -17.33333333 139.66666667 -18 138 C-18.69348529 136.76239548 -19.40260229 135.53345387 -20.125 134.3125 C-22 131 -22 131 -22 129 C-22.99 128.67 -23.98 128.34 -25 128 C-25.9375 126.375 -25.9375 126.375 -27 124 C-27.69797384 122.74418607 -28.40702628 121.49448778 -29.125 120.25 C-29.74375 119.1775 -30.3625 118.105 -31 117 C-31.66 117 -32.32 117 -33 117 C-33.09410156 116.11441406 -33.18820312 115.22882813 -33.28515625 114.31640625 C-34.0652973 110.69706336 -35.21095773 108.85839017 -37.4375 105.9375 C-39.38133733 103.36871289 -40.89599567 101.27590583 -42.03515625 98.25390625 C-42.35355469 97.51011719 -42.67195313 96.76632813 -43 96 C-44.485 95.505 -44.485 95.505 -46 95 C-45.505 93.515 -45.505 93.515 -45 92 C-46.485 92.495 -46.485 92.495 -48 93 C-48.33 91.35 -48.66 89.7 -49 88 C-101.47 87.505 -101.47 87.505 -155 87 C-152 84 -152 84 -149.375 82.4375 C-146.88809625 81.22087094 -146.88809625 81.22087094 -146 79 C-144.7934375 78.7834375 -144.7934375 78.7834375 -143.5625 78.5625 C-140.65559342 78.23497283 -140.65559342 78.23497283 -139 75 C-137.02416285 74.26480478 -135.01822402 73.60927518 -133 73 C-128.01451421 71.14708342 -128.01451421 71.14708342 -123.9375 67.875 C-122 66 -122 66 -119.23828125 65.56640625 C-115.71486083 64.95012644 -113.35280763 63.81532917 -110.25 62.0625 C-109.30640625 61.53785156 -108.3628125 61.01320312 -107.390625 60.47265625 C-104.92954078 59.08365891 -104.92954078 59.08365891 -103 57 C-102.360625 56.855625 -101.72125 56.71125 -101.0625 56.5625 C-98.58540271 55.88692801 -97.63394123 54.94516813 -96 53 C-95.505 52.01 -95.505 52.01 -95 51 C-93.35 51.33 -91.7 51.66 -90 52 C-90 51.34 -90 50.68 -90 50 C-89.39671875 49.74605469 -88.7934375 49.49210937 -88.171875 49.23046875 C-84.06830277 47.46328523 -80.53859225 45.75223842 -77 43 C-76.319375 42.835 -75.63875 42.67 -74.9375 42.5 C-72.90949917 42.15815412 -72.90949917 42.15815412 -71.625 40.5625 C-69.39041187 38.41385756 -66.91355912 37.95007362 -64 37 C-63.505 36.01 -63.505 36.01 -63 35 C-59.9375 34.375 -59.9375 34.375 -57 34 C-57.33 33.01 -57.66 32.02 -58 31 C-57.34 31 -56.68 31 -56 31 C-56 31.66 -56 32.32 -56 33 C-54.9275 32.29875 -53.855 31.5975 -52.75 30.875 C-47.37806511 27.50304807 -41.70116165 24.7650634 -36 22 C-36 21.01 -36 20.02 -36 19 C-34.700625 19.12375 -34.700625 19.12375 -33.375 19.25 C-29.14337511 18.9365463 -27.42199549 17.46383675 -24 15 C-21.37247642 13.58439621 -18.68842939 12.29523521 -16 11 C-14.98292969 10.44699219 -14.98292969 10.44699219 -13.9453125 9.8828125 C-12 9 -12 9 -9 9 C-9 8.34 -9 7.68 -9 7 C-8.05125 6.54625 -7.1025 6.0925 -6.125 5.625 C-3.05517026 4.02868854 -1.53979561 3.07959123 0 0 Z " fill="#14B0AB" transform="translate(313,129)"/>
<path d="M0 0 C-0.4125 0.515625 -0.825 1.03125 -1.25 1.5625 C-2.95468024 3.93687605 -4.34336831 6.39619089 -5.765625 8.9453125 C-7.23129706 11.38500713 -8.85049415 13.68082297 -10.5 16 C-14.57922735 21.75275652 -17.90490389 27.65505298 -21 34 C-21.66 34 -22.32 34 -23 34 C-23.22945313 34.66257813 -23.45890625 35.32515625 -23.6953125 36.0078125 C-25.38746567 39.88861887 -27.59389641 43.31701043 -29.875 46.875 C-33.59344765 52.71028166 -33.59344765 52.71028166 -37.08984375 58.6796875 C-39.32836555 62.57077857 -41.87956441 66.13584472 -44.51171875 69.765625 C-46.15068154 72.01416454 -46.15068154 72.01416454 -47 75 C-47.66 75 -48.32 75 -49 75 C-49 75.99 -49 76.98 -49 78 C-49.66 78 -50.32 78 -51 78 C-51.495 79.485 -51.495 79.485 -52 81 C-84.01 81 -116.02 81 -149 81 C-149 80.67 -149 80.34 -149 80 C-146.69 80 -144.38 80 -142 80 C-142 79.34 -142 78.68 -142 78 C-143.98 78 -145.96 78 -148 78 C-148 77.67 -148 77.34 -148 77 C-140.08 76.505 -140.08 76.505 -132 76 C-133.485 75.01 -133.485 75.01 -135 74 C-135.495 74.495 -135.495 74.495 -136 75 C-136.99 75 -137.98 75 -139 75 C-139 74.34 -139 73.68 -139 73 C-137.02 72.505 -137.02 72.505 -135 72 C-135 71.01 -135 70.02 -135 69 C-132.953125 67.2109375 -132.953125 67.2109375 -130.25 65.375 C-129.36828125 64.76398438 -128.4865625 64.15296875 -127.578125 63.5234375 C-125.23691832 62.13999719 -123.60137733 61.58504872 -121 61 C-119.5190694 60.2514569 -118.06105288 59.45639903 -116.625 58.625 C-113.13342211 56.63393492 -109.61495086 54.76112991 -106 53 C-106 52.34 -106 51.68 -106 51 C-105.21625 50.87625 -104.4325 50.7525 -103.625 50.625 C-100.85942178 50.20882007 -100.85942178 50.20882007 -99 48 C-98.505 47.01 -98.505 47.01 -98 46 C-96.35 46.33 -94.7 46.66 -93 47 C-93 46.34 -93 45.68 -93 45 C-92.09507812 44.61908203 -92.09507812 44.61908203 -91.171875 44.23046875 C-87.06830277 42.46328523 -83.53859225 40.75223842 -80 38 C-79.319375 37.835 -78.63875 37.67 -77.9375 37.5 C-75.90949917 37.15815412 -75.90949917 37.15815412 -74.625 35.5625 C-72.39041187 33.41385756 -69.91355912 32.95007362 -67 32 C-66.505 31.01 -66.505 31.01 -66 30 C-62.9375 29.375 -62.9375 29.375 -60 29 C-60.495 27.515 -60.495 27.515 -61 26 C-60.34 26 -59.68 26 -59 26 C-59 26.66 -59 27.32 -59 28 C-57.9275 27.29875 -56.855 26.5975 -55.75 25.875 C-50.37806511 22.50304807 -44.70116165 19.7650634 -39 17 C-39 16.01 -39 15.02 -39 14 C-37.700625 14.12375 -37.700625 14.12375 -36.375 14.25 C-32.14337511 13.9365463 -30.42199549 12.46383675 -27 10 C-24.37247642 8.58439621 -21.68842939 7.29523521 -19 6 C-17.98292969 5.44699219 -17.98292969 5.44699219 -16.9453125 4.8828125 C-15 4 -15 4 -12 4 C-12 3.34 -12 2.68 -12 2 C-10.75579353 1.4654744 -9.50429064 0.94791389 -8.25 0.4375 C-7.55390625 0.14746094 -6.8578125 -0.14257812 -6.140625 -0.44140625 C-3.69987216 -1.07831803 -2.3596345 -0.80248831 0 0 Z " fill="#27F0E9" transform="translate(316,134)"/>
<path d="M0 0 C0.042721 1.66611905 0.04063832 3.33382885 0 5 C-1.91064299 6.91064299 -4.73827895 6.12014611 -7.28016663 6.12442017 C-8.63530617 6.11902725 -8.63530617 6.11902725 -10.01782227 6.11352539 C-10.96406464 6.11367142 -11.91030701 6.11381744 -12.88522339 6.1139679 C-16.02897392 6.11326836 -19.17266601 6.10547409 -22.31640625 6.09765625 C-24.48974068 6.09579221 -26.66307552 6.09436824 -28.83641052 6.09336853 C-34.56901195 6.08954221 -40.30158823 6.07971097 -46.03417969 6.06866455 C-51.87890279 6.05845287 -57.72362993 6.05387143 -63.56835938 6.04882812 C-75.045584 6.0380888 -86.52278991 6.02101102 -98 6 C-98 5.67 -98 5.34 -98 5 C-95.69 5 -93.38 5 -91 5 C-91 4.34 -91 3.68 -91 3 C-92.98 3 -94.96 3 -97 3 C-97 2.67 -97 2.34 -97 2 C-85.33592334 1.24792544 -73.68444335 0.72900969 -62 0.4375 C-61.1851413 0.41632111 -60.37028259 0.39514221 -59.5307312 0.37332153 C-39.68850363 -0.13260487 -19.84705842 -0.10015207 0 0 Z " fill="#27F5EC" transform="translate(265,209)"/>
<path d="M0 0 C1.65 0.33 3.3 0.66 5 1 C5.93729803 4.96490204 6.12795654 8.65479171 6.13371277 12.72450256 C6.13597833 13.38748791 6.13824388 14.05047325 6.14057809 14.73354906 C6.14689093 16.9474653 6.14609049 19.16131991 6.14526367 21.37524414 C6.14825676 22.9655312 6.15165964 24.55581753 6.15544128 26.14610291 C6.16426785 30.4599913 6.16661877 34.77385985 6.16725707 39.0877564 C6.16820719 42.68887302 6.17188646 46.28998503 6.17542917 49.89109987 C6.18356777 58.38451493 6.18601385 66.87791938 6.18530273 75.37133789 C6.18470132 84.13677081 6.19526713 92.90214231 6.2110464 101.66755968 C6.22411127 109.19292906 6.22948711 116.71827833 6.22884732 124.24365896 C6.22859213 128.73851681 6.23145548 133.23332002 6.24202538 137.72816658 C6.25168923 141.95281296 6.25179736 146.17735223 6.24450874 150.40200233 C6.24346093 151.95322068 6.24583741 153.50444564 6.2518692 155.05565262 C6.25956415 157.17138895 6.25496125 159.28675301 6.24723816 161.40248108 C6.24778293 162.58694352 6.24832769 163.77140596 6.24888897 164.99176121 C6.00893373 167.89202098 5.51728451 169.55326771 4 172 C3.34 171.34 2.68 170.68 2 170 C1.34 170.33 0.68 170.66 0 171 C-0.268125 169.948125 -0.53625 168.89625 -0.8125 167.8125 C-1.87161308 164.41218959 -3.12535015 161.9823975 -5 159 C-5 158.34 -5 157.68 -5 157 C-2.525 156.01 -2.525 156.01 0 155 C0.33 158.3 0.66 161.6 1 165 C1.66 165 2.32 165 3 165 C3 111.87 3 58.74 3 4 C0.69 4.66 -1.62 5.32 -4 6 C-3.525625 5.38125 -3.05125 4.7625 -2.5625 4.125 C-0.97582559 2.09294454 -0.97582559 2.09294454 0 0 Z " fill="#10A292" transform="translate(313,129)"/>
<path d="M0 0 C-0.61875 0.7734375 -0.61875 0.7734375 -1.25 1.5625 C-2.95049316 3.93104404 -4.33576439 6.38483482 -5.7578125 8.92578125 C-8.71005207 13.85546431 -11.92872884 18.92872884 -16 23 C-16.66 22.01 -17.32 21.02 -18 20 C-18.66 20 -19.32 20 -20 20 C-20.33 19.01 -20.66 18.02 -21 17 C-22.093125 17.04125 -23.18625 17.0825 -24.3125 17.125 C-28 17 -28 17 -31 15 C-31.66 14.67 -32.32 14.34 -33 14 C-28.51530995 10.86071696 -23.92652126 8.37350619 -19 6 C-18.32195312 5.63132813 -17.64390625 5.26265625 -16.9453125 4.8828125 C-15 4 -15 4 -12 4 C-12 3.34 -12 2.68 -12 2 C-10.75579353 1.4654744 -9.50429064 0.94791389 -8.25 0.4375 C-7.55390625 0.14746094 -6.8578125 -0.14257812 -6.140625 -0.44140625 C-3.69987216 -1.07831803 -2.3596345 -0.80248831 0 0 Z " fill="#27E3DD" transform="translate(316,134)"/>
<path d="M0 0 C2.475 0.495 2.475 0.495 5 1 C5.93800087 4.96707273 6.12795965 8.65926048 6.13371277 12.73123169 C6.13597833 13.3949226 6.13824388 14.05861351 6.14057809 14.74241626 C6.14689093 16.95866647 6.1460905 19.1748551 6.14526367 21.39111328 C6.14825673 22.98302286 6.1516596 24.5749317 6.15544128 26.1668396 C6.16426743 30.48479294 6.16661873 34.80272647 6.16725707 39.12068796 C6.16820708 42.72438417 6.17188618 46.32807577 6.17542917 49.93177021 C6.18356736 58.42993903 6.18601386 66.92809726 6.18530273 75.42626953 C6.18470111 84.19967483 6.19527127 92.97301881 6.2110464 101.74640858 C6.22410529 109.27685782 6.22948737 116.80728697 6.22884732 124.33774745 C6.22859198 128.83648579 6.23146343 133.33516956 6.24202538 137.83389664 C6.25167937 142.06100223 6.2518042 146.28800073 6.24450874 150.51511002 C6.24345974 152.06836096 6.24584437 153.62161848 6.2518692 155.17485809 C6.2595474 157.29094468 6.25497252 159.40665748 6.24723816 161.5227356 C6.24778293 162.70811983 6.24832769 163.89350407 6.24888897 165.11480904 C6 168 6 168 4 171 C4 115.23 4 59.46 4 2 C3.01 2.33 2.02 2.66 1 3 C0.67 2.01 0.34 1.02 0 0 Z " fill="#081C27" transform="translate(313,129)"/>
<path d="M0 0 C22.44 0 44.88 0 68 0 C68 1.98 68 3.96 68 6 C67.01 6.33 66.02 6.66 65 7 C64.505 4.525 64.505 4.525 64 2 C32.32 1.505 32.32 1.505 0 1 C0 0.67 0 0.34 0 0 Z " fill="#116469" transform="translate(200,215)"/>
<path d="M0 0 C0 0.66 0 1.32 0 2 C-0.66 2 -1.32 2 -2 2 C-1.690625 2.721875 -1.38125 3.44375 -1.0625 4.1875 C-0.07439461 6.80307309 0.5287754 9.25118982 1 12 C2.32 12.33 3.64 12.66 5 13 C5 13.99 5 14.98 5 16 C5.99 16.33 6.98 16.66 8 17 C8.33 19.64 8.66 22.28 9 25 C5 20.25 5 20.25 5 18 C4.01 17.67 3.02 17.34 2 17 C1.0625 15.375 1.0625 15.375 0 13 C-0.69797384 11.74418607 -1.40702628 10.49448778 -2.125 9.25 C-2.74375 8.1775 -3.3625 7.105 -4 6 C-4.66 6 -5.32 6 -6 6 C-6 4.35 -6 2.7 -6 1 C-3.92446352 0.4465236 -2.15634036 0 0 0 Z " fill="#116363" transform="translate(286,240)"/>
<path d="M0 0 C0.33 3.3 0.66 6.6 1 10 C1.99 10.33 2.98 10.66 4 11 C4 12.98 4 14.96 4 17 C3.34 16.34 2.68 15.68 2 15 C1.01 15.495 1.01 15.495 0 16 C-0.268125 14.948125 -0.53625 13.89625 -0.8125 12.8125 C-1.87161308 9.41218959 -3.12535015 6.9823975 -5 4 C-5 3.34 -5 2.68 -5 2 C-1.125 0 -1.125 0 0 0 Z " fill="#128F8B" transform="translate(313,284)"/>
<path d="M0 0 C0.99 0 1.98 0 3 0 C3 0.99 3 1.98 3 3 C2.34 3 1.68 3 1 3 C1 4.32 1 5.64 1 7 C0.34 7 -0.32 7 -1 7 C-1.33 6.34 -1.66 5.68 -2 5 C-3.98 6.32 -5.96 7.64 -8 9 C-8.66 8.67 -9.32 8.34 -10 8 C-10.33 8.66 -10.66 9.32 -11 10 C-11.66 9.34 -12.32 8.68 -13 8 C-13 7.34 -13 6.68 -13 6 C-12.21625 5.87625 -11.4325 5.7525 -10.625 5.625 C-7.85942178 5.20882007 -7.85942178 5.20882007 -6 3 C-5.67 2.34 -5.34 1.68 -5 1 C-3.35 1.33 -1.7 1.66 0 2 C0 1.34 0 0.68 0 0 Z " fill="#219F9A" transform="translate(223,179)"/>
<path d="M0 0 C-0.99 0.495 -0.99 0.495 -2 1 C-1.67 1.99 -1.34 2.98 -1 4 C-8.75 5.125 -8.75 5.125 -11 4 C-11.33 4.66 -11.66 5.32 -12 6 C-12.66 6 -13.32 6 -14 6 C-14 5.34 -14 4.68 -14 4 C-12.68 3.67 -11.36 3.34 -10 3 C-10 2.34 -10 1.68 -10 1 C-6.52674819 -0.1577506 -3.63932552 -0.06866652 0 0 Z " fill="#2AF5EF" transform="translate(191,203)"/>
<path d="M0 0 C0.99 0.33 1.98 0.66 3 1 C3 1.99 3 2.98 3 4 C3.99 4.33 4.98 4.66 6 5 C6.33 7.64 6.66 10.28 7 13 C3 8.25 3 8.25 3 6 C2.01 5.67 1.02 5.34 0 5 C0 3.35 0 1.7 0 0 Z " fill="#14827D" transform="translate(288,252)"/>
<path d="M0 0 C-0.45375 0.5775 -0.9075 1.155 -1.375 1.75 C-2.84113516 3.7800333 -3.94857784 5.73539843 -5 8 C-5.33 7.01 -5.66 6.02 -6 5 C-5.67 4.34 -5.34 3.68 -5 3 C-7.31 3.33 -9.62 3.66 -12 4 C-12 3.34 -12 2.68 -12 2 C-10.75579353 1.4654744 -9.50429064 0.94791389 -8.25 0.4375 C-7.55390625 0.14746094 -6.8578125 -0.14257812 -6.140625 -0.44140625 C-3.69987216 -1.07831803 -2.3596345 -0.80248831 0 0 Z " fill="#20C9C0" transform="translate(316,134)"/>
<path d="M0 0 C0.99 0.33 1.98 0.66 3 1 C3 1.99 3 2.98 3 4 C3.99 3.67 4.98 3.34 6 3 C6.66 3.33 7.32 3.66 8 4 C7.34 5.98 6.68 7.96 6 10 C2.65756352 8.10595266 2.02002851 7.05908409 0.75 3.3125 C0.5025 2.219375 0.255 1.12625 0 0 Z " fill="#116A69" transform="translate(295,265)"/>
<path d="M0 0 C0 0.66 0 1.32 0 2 C-0.99 2 -1.98 2 -3 2 C-2.67 2.99 -2.34 3.98 -2 5 C-5.63 5.66 -9.26 6.32 -13 7 C-10.46930592 4.46930592 -9.01985937 3.31623046 -5.9375 1.8125 C-5.24527344 1.46832031 -4.55304688 1.12414062 -3.83984375 0.76953125 C-2 0 -2 0 0 0 Z " fill="#188E8C" transform="translate(210,188)"/>
<path d="M0 0 C0.66 0.66 1.32 1.32 2 2 C1.34 2 0.68 2 0 2 C0 2.99 0 3.98 0 5 C-2.97 5.66 -5.94 6.32 -9 7 C-7 3 -7 3 -3.9375 1.8125 C-2.4834375 1.4103125 -2.4834375 1.4103125 -1 1 C-0.67 0.67 -0.34 0.34 0 0 Z " fill="#105857" transform="translate(181,201)"/>
<path d="M0 0 C0 0.33 0 0.66 0 1 C-1.8253125 1.2165625 -1.8253125 1.2165625 -3.6875 1.4375 C-6.82670377 1.82780953 -9.9075134 2.32351856 -13 3 C-11 0 -11 0 -9.3125 -0.75 C-6.09886176 -1.09742035 -3.17025463 -0.54869792 0 0 Z " fill="#2BF4F1" transform="translate(279,157)"/>
<path d="M0 0 C2.475 0.99 2.475 0.99 5 2 C5 3.98 5 5.96 5 8 C4.34 7.34 3.68 6.68 3 6 C2.01 6.495 2.01 6.495 1 7 C0.67 4.69 0.34 2.38 0 0 Z " fill="#125C59" transform="translate(312,293)"/>
<path d="M0 0 C0 1.32 0 2.64 0 4 C-3.37817425 4.84454356 -5.67465243 5.10844919 -9 4 C-2.25 0 -2.25 0 0 0 Z " fill="#1CAA9F" transform="translate(277,152)"/>
<path d="M0 0 C-0.33 1.98 -0.66 3.96 -1 6 C-1.99 6.33 -2.98 6.66 -4 7 C-4 6.34 -4 5.68 -4 5 C-4.66 5 -5.32 5 -6 5 C-6 4.34 -6 3.68 -6 3 C-5.34 3 -4.68 3 -4 3 C-4 2.34 -4 1.68 -4 1 C-2 0 -2 0 0 0 Z " fill="#2CF7F3" transform="translate(311,137)"/>
<path d="M0 0 C5.79732739 4.27171492 5.79732739 4.27171492 7 8 C6.67 8.99 6.34 9.98 6 11 C2 5.25 2 5.25 2 3 C1.01 2.67 0.02 2.34 -1 2 C-0.67 1.34 -0.34 0.68 0 0 Z " fill="#084646" transform="translate(268,222)"/>
<path d="M0 0 C0.66 0.33 1.32 0.66 2 1 C-0.51830747 4.12270126 -1.7261549 4.94523098 -5.75 5.75 C-7.35875 5.87375 -7.35875 5.87375 -9 6 C-7.71836753 3.43673506 -6.57214871 3.17583941 -4 2 C-3.29875 1.608125 -2.5975 1.21625 -1.875 0.8125 C-1.25625 0.544375 -0.6375 0.27625 0 0 Z " fill="#107B73" transform="translate(301,138)"/>
<path d="M0 0 C-0.33 0.99 -0.66 1.98 -1 3 C-6.75 4.125 -6.75 4.125 -9 3 C-9 2.34 -9 1.68 -9 1 C-5.94152152 0.45627049 -3.11227195 0 0 0 Z " fill="#2EF4F3" transform="translate(248,172)"/>
<path d="M0 0 C-0.33 1.32 -0.66 2.64 -1 4 C-2.32 4 -3.64 4 -5 4 C-5.33 4.99 -5.66 5.98 -6 7 C-6 6.34 -6 5.68 -6 5 C-6.66 4.67 -7.32 4.34 -8 4 C-2.25 0 -2.25 0 0 0 Z " fill="#24B2A9" transform="translate(189,199)"/>
<path d="M0 0 C0.99 0.33 1.98 0.66 3 1 C2.67 1.99 2.34 2.98 2 4 C0.02 4.33 -1.96 4.66 -4 5 C-3.67 4.01 -3.34 3.02 -3 2 C-2.34 2.33 -1.68 2.66 -1 3 C-0.67 2.01 -0.34 1.02 0 0 Z " fill="#27F6F3" transform="translate(292,145)"/>
<path d="M0 0 C1.2077558 3.62326739 0.54311128 4.64146369 -1 8 C-1.99 7.34 -2.98 6.68 -4 6 C-2.68 4.02 -1.36 2.04 0 0 Z " fill="#11B6B2" transform="translate(310,142)"/>
<path d="M0 0 C1.32 0 2.64 0 4 0 C4 1.98 4 3.96 4 6 C3.01 6.33 2.02 6.66 1 7 C0.67 4.69 0.34 2.38 0 0 Z " fill="#0E6060" transform="translate(264,215)"/>
<path d="M0 0 C0.99 0 1.98 0 3 0 C3 0.99 3 1.98 3 3 C0.69 3.33 -1.62 3.66 -4 4 C-4.33 3.01 -4.66 2.02 -5 1 C-2.525 1.495 -2.525 1.495 0 2 C0 1.34 0 0.68 0 0 Z " fill="#125053" transform="translate(223,179)"/>
<path d="M0 0 C2.475 0.495 2.475 0.495 5 1 C4.67 2.32 4.34 3.64 4 5 C2.68 4.34 1.36 3.68 0 3 C0 2.01 0 1.02 0 0 Z " fill="#146865" transform="translate(277,148)"/>
<path d="" fill="#16020E" transform="translate(0,0)"/>
<path d="M0 0 C0.66 0.66 1.32 1.32 2 2 C1.34 2 0.68 2 0 2 C0 1.34 0 0.68 0 0 Z " fill="#160707" transform="translate(162,209)"/>
<path d="M0 0 C3 1 3 1 3 1 Z " fill="#150002" transform="translate(250,161)"/>
<path d="M0 0 C0.99 0.495 0.99 0.495 2 1 C1.01 1.495 1.01 1.495 0 2 C0 1.34 0 0.68 0 0 Z " fill="#020811" transform="translate(264,154)"/>
<path d="" fill="#140002" transform="translate(0,0)"/>
<path d="" fill="#1A0409" transform="translate(0,0)"/>
<path d="M0 0 C2 1 2 1 2 1 Z " fill="#150000" transform="translate(178,200)"/>
<path d="" fill="#13030A" transform="translate(0,0)"/>
<path d="M0 0 C2 1 2 1 2 1 Z " fill="#140805" transform="translate(203,186)"/>
<path d="M0 0 C2 1 2 1 2 1 Z " fill="#0F0211" transform="translate(207,184)"/>
<path d="M0 0 C2 1 2 1 2 1 Z " fill="#130001" transform="translate(234,171)"/>
<path d="" fill="#0C1204" transform="translate(0,0)"/>
<path d="" fill="#080A02" transform="translate(0,0)"/>
<path d="M0 0 C2 1 2 1 2 1 Z " fill="#210002" transform="translate(317,128)"/>
<path d="M0 0 C2 1 2 1 2 1 Z " fill="#12010A" transform="translate(307,128)"/>
<path d="M0 0 C2 1 2 1 2 1 Z " fill="#121212" transform="translate(316,50)"/>
<path d="" fill="#111111" transform="translate(0,0)"/>
<path d="" fill="#121212" transform="translate(0,0)"/>
<path d="" fill="#111111" transform="translate(0,0)"/>
<path d="" fill="#161616" transform="translate(0,0)"/>
<path d="" fill="#171717" transform="translate(0,0)"/>
<path d="" fill="#101010" transform="translate(0,0)"/>
<path d="" fill="#101010" transform="translate(0,0)"/>
<path d="" fill="#1F1F1F" transform="translate(0,0)"/>
<path d="" fill="#101010" transform="translate(0,0)"/>
<path d="" fill="#121212" transform="translate(0,0)"/>
<path d="" fill="#121212" transform="translate(0,0)"/>
<path d="" fill="#101010" transform="translate(0,0)"/>
<path d="" fill="#140B0E" transform="translate(0,0)"/>
<path d="" fill="#111111" transform="translate(0,0)"/>
<path d="" fill="#101010" transform="translate(0,0)"/>
<path d="" fill="#1A1A1A" transform="translate(0,0)"/>
<path d="" fill="#101010" transform="translate(0,0)"/>
<path d="" fill="#111111" transform="translate(0,0)"/>
<path d="" fill="#16050F" transform="translate(0,0)"/>
<path d="" fill="#121212" transform="translate(0,0)"/>
<path d="" fill="#100001" transform="translate(0,0)"/>
<path d="" fill="#121212" transform="translate(0,0)"/>
<path d="" fill="#111111" transform="translate(0,0)"/>
<path d="" fill="#131313" transform="translate(0,0)"/>
<path d="" fill="#021003" transform="translate(0,0)"/>
<path d="" fill="#111111" transform="translate(0,0)"/>
<path d="" fill="#101010" transform="translate(0,0)"/>
<path d="" fill="#0D1007" transform="translate(0,0)"/>
<path d="" fill="#1B0000" transform="translate(0,0)"/>
<path d="" fill="#121212" transform="translate(0,0)"/>
<path d="" fill="#101010" transform="translate(0,0)"/>
<path d="" fill="#111111" transform="translate(0,0)"/>
<path d="" fill="#031819" transform="translate(0,0)"/>
<path d="" fill="#111111" transform="translate(0,0)"/>
<path d="" fill="#100B08" transform="translate(0,0)"/>
<path d="" fill="#07100B" transform="translate(0,0)"/>
<path d="" fill="#100604" transform="translate(0,0)"/>
<path d="" fill="#100607" transform="translate(0,0)"/>
<path d="" fill="#130610" transform="translate(0,0)"/>
<path d="" fill="#140002" transform="translate(0,0)"/>
<path d="" fill="#130709" transform="translate(0,0)"/>
<path d="" fill="#021300" transform="translate(0,0)"/>
<path d="" fill="#011219" transform="translate(0,0)"/>
<path d="" fill="#00100A" transform="translate(0,0)"/>
<path d="" fill="#120205" transform="translate(0,0)"/>
<path d="" fill="#001300" transform="translate(0,0)"/>
<path d="" fill="#130E0B" transform="translate(0,0)"/>
<path d="" fill="#1A0808" transform="translate(0,0)"/>
<path d="" fill="#2B000A" transform="translate(0,0)"/>
<path d="" fill="#140000" transform="translate(0,0)"/>
<path d="" fill="#160019" transform="translate(0,0)"/>
<path d="" fill="#1B0310" transform="translate(0,0)"/>
<path d="" fill="#1C010A" transform="translate(0,0)"/>
<path d="" fill="#011208" transform="translate(0,0)"/>
<path d="" fill="#14040F" transform="translate(0,0)"/>
<path d="" fill="#001201" transform="translate(0,0)"/>
<path d="" fill="#120000" transform="translate(0,0)"/>
<path d="" fill="#10060E" transform="translate(0,0)"/>
<path d="" fill="#110005" transform="translate(0,0)"/>
<path d="" fill="#001210" transform="translate(0,0)"/>
<path d="" fill="#100404" transform="translate(0,0)"/>
<path d="" fill="#001500" transform="translate(0,0)"/>
<path d="" fill="#101010" transform="translate(0,0)"/>
<path d="" fill="#111111" transform="translate(0,0)"/>
<path d="" fill="#141414" transform="translate(0,0)"/>
<path d="" fill="#101010" transform="translate(0,0)"/>
<path d="" fill="#121212" transform="translate(0,0)"/>
<path d="" fill="#101010" transform="translate(0,0)"/>
<path d="" fill="#121212" transform="translate(0,0)"/>
<path d="" fill="#131313" transform="translate(0,0)"/>
<path d="" fill="#161616" transform="translate(0,0)"/>
<path d="" fill="#121212" transform="translate(0,0)"/>
<path d="" fill="#111111" transform="translate(0,0)"/>
<path d="" fill="#111111" transform="translate(0,0)"/>
<path d="" fill="#101010" transform="translate(0,0)"/>
<path d="" fill="#111111" transform="translate(0,0)"/>
<path d="" fill="#181818" transform="translate(0,0)"/>
<path d="" fill="#191919" transform="translate(0,0)"/>
<path d="" fill="#111111" transform="translate(0,0)"/>
<path d="" fill="#151515" transform="translate(0,0)"/>
<path d="" fill="#111111" transform="translate(0,0)"/>
<path d="" fill="#101010" transform="translate(0,0)"/>
<path d="" fill="#121212" transform="translate(0,0)"/>
<path d="" fill="#101010" transform="translate(0,0)"/>
<path d="" fill="#101010" transform="translate(0,0)"/>
<path d="" fill="#181818" transform="translate(0,0)"/>
<path d="" fill="#101010" transform="translate(0,0)"/>
</svg>
